<svg width="172" height="195" viewBox="0 0 172 195" fill="none" xmlns="http://www.w3.org/2000/svg">
<circle cx="85.7421" cy="97.6808" r="85.7421" fill="#E94959"/>
<path d="M140.009 120.473C140.878 128.866 146.16 133.618 148.692 134.944C146.883 136.03 141.095 134.944 137.839 133.859C141.818 142.542 141.818 150.863 141.095 155.566C140.371 153.757 137.115 151.225 133.859 148.33C131.688 163.525 125.538 172.57 120.835 177.996C120.835 175.705 120.69 170.688 120.111 168.952C115.408 177.273 92.6159 188.85 88.9981 195C88.9981 193.553 86.8274 188.85 83.9332 185.955C81.0389 187.041 77.0593 193.553 76.6975 195C71.9944 192.106 56.4378 172.57 52.82 167.866C51.7346 170.037 52.82 175.826 52.82 177.996C40.5194 164.61 40.1576 153.395 40.1576 148.33C39.4341 148.692 33.2838 154.119 32.1985 155.566C31.4749 140.009 34.0074 137.477 35.0927 133.859C33.6456 135.306 26.41 135.668 24.2393 135.668C28.5807 133.859 32.5602 124.814 33.6456 121.558C15.1948 121.558 11.9387 107.449 11.5769 100.575C10.1298 102.384 10.1298 106.364 9.76806 110.343C4.84784 84.295 16.6419 77.0594 23.154 76.6976L21.3451 73.0798C30.7514 71.2709 27.8571 65.4824 30.7514 53.1818C33.6456 40.8813 41.243 36.5399 48.8404 31.8367C56.4378 27.1336 56.4378 18.8126 54.6289 15.1948C60.4174 14.833 67.2912 22.4304 69.4619 25.3247C69.4619 22.0686 71.2708 17.0037 73.8033 14.1095C76.3358 11.2152 75.2504 2.53247 75.2504 0C76.3358 0.723562 83.5714 3.97959 92.6159 9.76809C101.66 15.5566 106.725 26.0482 108.173 29.3043C109.981 26.0482 107.449 18.0891 107.087 17.0037C107.811 17.7273 120.835 26.7718 124.453 28.5807C128.07 30.3896 132.412 27.8571 133.497 26.7718C133.497 28.5807 131.326 31.8367 130.241 32.922C133.497 32.5603 138.2 34.0074 140.009 35.4545C133.497 34.731 130.241 36.9016 130.603 38.3488C141.818 39.7959 144.351 52.4582 145.436 57.1614C144.712 55.3525 141.095 52.4582 139.286 51.7347C140.13 53.9054 141.891 59.6939 142.18 65.4824C142.469 71.2709 147.848 73.4415 150.501 73.8033C149.898 74.2857 148.837 75.4675 149.416 76.3358C166.419 83.5714 162.078 105.278 160.631 110.343C160.51 107.811 160.124 102.384 159.545 100.937C157.737 119.388 143.989 120.835 140.009 120.473Z" fill="black"/>
<path d="M78.5064 63.6735C81.1112 64.5417 83.9331 67.4119 85.0184 68.7384C86.4656 67.6531 90.011 65.1206 92.6158 63.6735C87.9127 68.0149 88.6362 70.5473 90.4452 71.9944C94.063 68.0149 100.575 65.1206 103.469 63.6735C118.664 58.6085 125.176 71.2709 126.623 73.4416C125.538 72.3562 120.835 69.8238 117.579 68.7384C120.473 71.3432 123.85 77.3006 125.176 79.9536C125.176 92.2542 125.031 117.434 124.453 119.75C122.644 118.664 114.684 116.494 110.343 117.579C133.497 123.729 125.538 143.627 123.367 149.054C122.282 154.481 117.579 157.737 114.684 157.737C111.79 157.737 102.384 158.822 98.4043 164.61C94.4247 170.399 91.5305 171.846 84.6567 171.846C77.7828 171.846 74.8886 168.952 71.9943 164.61C69.1001 160.269 62.2262 158.46 56.0759 157.737C49.9257 157.013 48.4785 151.948 47.3932 149.054C46.3079 146.16 43.4136 140.733 44.1372 132.412C44.8607 124.091 54.267 119.75 60.4173 117.579C55.7142 116.855 48.4785 118.302 45.9461 120.835C45.0778 119.098 45.5843 92.8572 45.9461 79.9536C45.9461 76.3358 50.2875 71.2709 53.1817 68.7384C51.3728 68.7384 46.3079 71.9944 43.7754 73.4416C52.4581 60.4174 59.6938 62.2263 67.2912 63.6735C74.8886 65.1206 79.9535 73.4416 81.4006 71.9944C82.8477 70.5473 79.9535 65.8442 78.5064 63.6735Z" fill="#FFE2DA"/>
<path d="M84.2949 129.518L85.3803 120.473L86.4656 129.518C94.3042 130.241 110.777 131.688 113.961 131.688C115.77 130.965 116.132 127.709 114.685 125.9C120.473 128.215 119.991 132.412 119.026 134.221C118.544 133.377 117.289 131.978 116.132 133.135C116.855 141.456 113.237 143.989 111.429 148.33C109.62 152.672 103.469 155.566 96.5955 153.757C89.7217 151.948 77.0593 153.033 70.1855 154.481C63.3116 155.928 61.5027 151.586 58.9703 148.33C56.4378 145.074 54.2671 138.2 53.5435 132.412C53.0612 132.653 51.8794 133.353 51.0111 134.221C50.6493 128.432 53.1818 127.347 57.1614 125.9C53.9053 128.071 55.7142 131.688 58.2467 131.688C60.2727 131.688 76.4563 130.241 84.2949 129.518Z" fill="black"/>
<path d="M39.796 80.6771H75.6123L91.8925 81.7625L94.7867 80.6771H131.688C131.568 84.6567 130.748 94.2077 128.432 100.575C125.538 108.534 116.494 110.705 104.917 110.705C101.843 109.936 101.665 106.548 99.8517 104.555C87.5511 100.213 91.5509 88.888 90.4454 85.0185C89.2877 80.9665 82.4862 83.3302 79.2301 85.0185C78.9889 88.6363 78.5066 96.5955 78.5066 99.4897C78.5066 101.255 74.6314 102.286 71.6327 104.555C68.4845 106.937 66.1176 110.52 62.2264 110.705C46.6698 110.343 41.9667 100.213 39.796 94.063C38.0594 89.1428 39.0724 83.089 39.796 80.6771Z" fill="black"/>
<path d="M89.3599 90.8071C89.3599 85.7421 89.3599 84.295 85.3803 84.295C80.6771 84.295 81.4007 87.1893 81.4007 95.1484C81.4007 96.9573 81.0389 99.4898 79.5918 102.746C78.7476 102.505 76.6975 102.022 75.2504 102.022C78.1446 98.4045 77.0593 88.6364 77.0593 85.3803C77.0593 82.7755 74.8886 82.1243 73.8033 82.1243H41.243C40.64 84.5362 40.3024 91.5306 43.7754 100.213C47.2485 108.896 60.4174 108.896 66.5677 107.811V111.429C42.8348 115.77 37.384 98.5251 37.6252 89.3599V82.1243H34.3691V78.8683H77.0593L79.5918 80.6772H91.5305L93.3395 78.8683H136.391V82.8479H133.497C133.738 87.1893 133.063 97.6085 128.432 104.555C122.644 113.237 108.172 112.876 103.469 112.152C103.469 111.187 104.048 108.824 103.469 107.087C113.599 109.258 121.197 107.449 126.262 102.022C130.313 97.6809 130.362 87.4304 129.879 82.8479H96.2337C94.063 82.8479 93.3395 84.295 93.3395 90.8071C93.3395 97.3191 94.4248 99.128 96.2337 102.022C94.063 102.022 93.7012 102.022 91.5305 102.746C88.9981 99.8516 89.3599 95.872 89.3599 90.8071Z" fill="#04EAF4" stroke="black" stroke-width="1.44712"/>
<path d="M74.1651 107.449C71.2709 109.764 74.1651 112.996 75.974 114.323C74.1651 111.428 74.5269 109.62 75.974 108.896C75.3951 110.995 76.9388 111.7 77.7829 111.79H81.4007V112.876L79.5918 113.599V114.685H82.8479C82.9685 114.443 83.0649 112.876 82.8479 110.705C82.4861 107.087 77.7829 104.555 74.1651 107.449Z" fill="black"/>
<path d="M71.6326 103.469C75.3951 100.575 80.7977 103.349 82.8478 105.278C73.4415 100.575 70.909 106.002 70.5473 106.364C70.1855 106.725 66.2059 111.428 70.909 113.599C75.6122 115.77 75.6122 117.579 75.2504 119.749C75.2504 117.941 74.1651 116.493 70.909 115.408C67.653 114.323 66.9294 112.514 66.9294 109.981V109.981C66.9294 107.449 66.9294 107.087 71.6326 103.469Z" fill="black"/>
<path d="M96.3627 107.449C99.257 109.764 96.3627 112.996 94.5538 114.323C96.3627 111.428 96.0009 109.62 94.5538 108.896C95.1327 110.995 93.5891 111.7 92.7449 111.79H89.1271V112.876L90.936 113.599V114.685H87.68C87.5594 114.443 87.4629 112.876 87.68 110.705C88.0418 107.087 92.7449 104.555 96.3627 107.449Z" fill="black"/>
<path d="M98.8953 103.469C95.1327 100.575 89.7301 103.349 87.68 105.278C97.0863 100.575 99.6188 106.002 99.9806 106.364C100.342 106.725 104.322 111.428 99.6188 113.599C94.9156 115.77 94.9156 117.579 95.2774 119.749C95.2774 117.941 96.3628 116.493 99.6188 115.408C102.875 114.323 103.598 112.514 103.598 109.981V109.981C103.598 107.449 103.598 107.087 98.8953 103.469Z" fill="black"/>
<path d="M120.835 83.9332H117.217C113.841 90.8071 106.87 104.989 106.002 106.725C106.87 107.015 109.017 107.087 109.982 107.087L120.835 83.9332Z" fill="white"/>
<path d="M114.685 83.9332H108.896L99.4897 103.108L102.022 104.917L103.831 106.002L114.685 83.9332Z" fill="white"/>
<path d="M57.1614 107.087L68.3766 83.9332H71.6326C68.256 90.9277 61.2857 105.351 60.4174 107.087C59.8386 107.377 58.0055 107.208 57.1614 107.087Z" fill="white"/>
<path d="M49.564 104.917L60.0556 83.9332H66.2059C62.7087 90.9277 55.4972 105.278 54.6289 106.725C53.1818 106.725 50.6493 105.519 49.564 104.917Z" fill="white"/>
<path d="M111.429 139.286C110.56 139.865 102.384 140.733 98.4046 141.095C101.661 141.698 108.462 143.048 109.62 143.627C111.067 144.351 109.62 145.798 108.173 147.968C107.015 149.705 104.072 149.898 102.746 149.777H65.4825C63.3118 149.777 59.694 144.712 60.7793 143.627C61.6476 142.759 68.1355 141.577 71.271 141.095C67.7738 140.733 60.5623 139.865 59.694 139.286C58.6086 138.562 57.5233 135.668 60.7793 134.221C64.0354 132.774 78.1448 132.412 85.7422 132.412C93.3396 132.412 106.726 133.497 109.62 134.221C112.514 134.944 112.514 138.562 111.429 139.286Z" fill="white"/>
<path d="M149.054 82.8478C141.818 79.3748 137.597 85.0185 136.391 88.2746C146.883 84.6568 150.501 91.8924 150.501 94.7866C147.968 90.0835 141.818 90.807 140.009 91.8924C149.416 92.6159 149.054 103.469 146.16 105.278C147.245 103.108 144.712 96.2337 139.286 98.7662C133.859 101.299 134.944 111.067 135.668 116.493C145.508 115.915 149.657 108.293 150.501 104.555C151.016 106.002 151.737 109.33 150.501 111.067C156.651 103.831 158.098 87.1892 149.054 82.8478Z" fill="#FFE2DA"/>
<path d="M21.6164 82.8478C28.852 79.3748 33.0728 85.0185 34.2787 88.2746C23.7871 84.6568 20.1692 91.8924 20.1692 94.7866C22.7017 90.0835 28.852 90.807 30.6609 91.8924C21.2546 92.6159 21.6164 103.469 24.5106 105.278C23.4253 103.108 25.9577 96.2337 31.3845 98.7662C36.8112 101.299 35.7258 111.067 35.0023 116.493C25.1618 115.915 21.0134 108.293 20.1692 104.555C19.6544 106.002 18.9335 109.33 20.1692 111.067C14.019 103.831 12.5718 87.1892 21.6164 82.8478Z" fill="#FFE2DA"/>
<path d="M126.623 48.4787L123.006 43.7755C131.688 46.9592 135.788 55.2319 136.753 58.9703L129.156 52.4583C130.724 57.7644 133.931 69.1725 134.221 72.3562C129.518 56.0761 120.473 49.9258 112.152 43.7755C115.336 43.7755 123.126 46.9109 126.623 48.4787Z" fill="#1F1F1F"/>
<path d="M81.4006 23.8776C86.8274 28.9425 85.3802 44.1373 83.9331 54.629C88.5639 52.0241 91.1687 43.4138 91.8923 39.4342C92.3747 42.0872 93.4841 48.1169 94.063 51.0112C97.5361 48.1169 97.4396 38.9518 96.9572 34.731C97.922 35.4546 100.503 37.4082 103.108 39.4342C99.8515 22.4305 88.998 15.5566 81.4006 9.04456C85.742 14.1095 90.0834 26.0483 91.8923 32.1985C90.4452 29.6661 83.9331 23.8776 81.4006 23.8776Z" fill="#1F1F1F"/>
<path d="M54.9907 35.0927C51.0111 47.7551 38.3488 49.564 37.2634 66.2059C41.6048 55.7143 53.5436 48.8404 57.5232 45.9462C57.5232 47.3933 56.076 51.3729 54.9907 54.2671C66.9295 45.2226 66.2059 31.8367 65.4824 27.1335C63.6734 35.4545 57.885 40.8812 53.5436 44.499C54.6289 43.4137 55.3525 38.7105 54.9907 35.0927Z" fill="#1F1F1F"/>
</svg>
